# xmcd CD database file
#
# Track frame offsets:
#	150
#	67463
#	126653
#
# Disc length: 3435 seconds
#
# Revision: 1
# Processed by: cddbd v1.5.1PL0 Copyright (c) Steve Scherf et al.
# Submitted via: CDex 1.50
#
DISCID=330d6903
DTITLE=Angelight - Intimland vol.1 Прикосновение
DYEAR=1900
DGENRE=New Age
TTITLE0=Рядом с тобой
TTITLE1=Прикосновение
TTITLE2=Долгая ночь любви
EXTD=
EXTT0=
EXTT1=
EXTT2=
PLAYORDER=
